<svg width="414" height="467" viewBox="0 0 414 467" fill="none" xmlns="http://www.w3.org/2000/svg">
<path d="M16.127 212.465C19.1645 212.465 21.627 210.002 21.627 206.965C21.627 203.927 19.1645 201.465 16.127 201.465C13.0894 201.465 10.627 203.927 10.627 206.965C10.627 210.002 13.0894 212.465 16.127 212.465Z" fill="#ECF1F7"/>
<path d="M381.46 398.859C384.498 398.859 386.96 396.396 386.96 393.359C386.96 390.321 384.498 387.859 381.46 387.859C378.422 387.859 375.96 390.321 375.96 393.359C375.96 396.396 378.422 398.859 381.46 398.859Z" fill="#ECF1F7"/>
<path d="M48.8 466.491C51.8376 466.491 54.3 464.028 54.3 460.991C54.3 457.953 51.8376 455.491 48.8 455.491C45.7625 455.491 43.3 457.953 43.3 460.991C43.3 464.028 45.7625 466.491 48.8 466.491Z" fill="#ECF1F7"/>
<path d="M165.907 29.8247C168.945 29.8247 171.407 27.3623 171.407 24.3247C171.407 21.2871 168.945 18.8247 165.907 18.8247C162.869 18.8247 160.407 21.2871 160.407 24.3247C160.407 27.3623 162.869 29.8247 165.907 29.8247Z" fill="#ECF1F7"/>
<path d="M331.78 53.3987C333.009 53.3987 334.005 52.4025 334.005 51.1737C334.005 49.9449 333.009 48.9487 331.78 48.9487C330.551 48.9487 329.555 49.9449 329.555 51.1737C329.555 52.4025 330.551 53.3987 331.78 53.3987Z" fill="#DCEDFF"/>
<path d="M365.46 372.906C366.689 372.906 367.685 371.91 367.685 370.681C367.685 369.452 366.689 368.456 365.46 368.456C364.231 368.456 363.235 369.452 363.235 370.681C363.235 371.91 364.231 372.906 365.46 372.906Z" fill="#DCEDFF"/>
<path d="M400.235 200.917C401.464 200.917 402.46 199.921 402.46 198.692C402.46 197.463 401.464 196.467 400.235 196.467C399.006 196.467 398.01 197.463 398.01 198.692C398.01 199.921 399.006 200.917 400.235 200.917Z" fill="#DCEDFF"/>
<path d="M176.32 38.3827C177.549 38.3827 178.545 37.3865 178.545 36.1577C178.545 34.9289 177.549 33.9327 176.32 33.9327C175.091 33.9327 174.095 34.9289 174.095 36.1577C174.095 37.3865 175.091 38.3827 176.32 38.3827Z" fill="#DCEDFF"/>
<path d="M348.46 457.716C349.689 457.716 350.685 456.72 350.685 455.491C350.685 454.262 349.689 453.266 348.46 453.266C347.231 453.266 346.235 454.262 346.235 455.491C346.235 456.72 347.231 457.716 348.46 457.716Z" fill="#DCEDFF"/>
<path d="M198.538 62.8527L43.3 156.483V402.164H353.776V156.483L198.538 62.8527Z" fill="#F7F8FC"/>
<path d="M353.776 156.483L198.538 62.8527L43.3 156.483V277.871C88.041 262.073 136.736 202.965 179.201 196.77C230.205 189.33 267.556 268.788 317.88 277.059C330.434 279.122 342.594 278.472 353.776 276.333V156.483Z" fill="#ECF1F7"/>
<path d="M380.371 184.26L198.537 74.5317L18.703 183.006L8.37305 165.88L198.539 51.1737L390.705 167.136L380.371 184.26Z" fill="#ECF1F7"/>
<path d="M44.8244 131.87C41.8358 133.653 38.7212 135.068 35.4806 136.117C32.2539 137.11 29.3921 137.583 26.8952 137.535L25.5244 126.336C27.8363 126.308 30.2415 125.968 32.7402 125.316C35.2184 124.629 37.4365 123.702 39.3946 122.534C41.0779 121.53 42.188 120.658 42.7249 119.918C43.2414 119.144 43.305 118.431 42.9156 117.778C42.4648 117.023 41.6457 116.743 40.4585 116.939C39.3056 117.114 37.5138 117.624 35.0832 118.468C31.9524 119.544 29.2647 120.309 27.0204 120.763C24.7555 121.183 22.4853 121.046 20.2095 120.355C17.9133 119.628 15.9865 117.96 14.4291 115.349C13.0766 113.082 12.4826 110.642 12.6471 108.029C12.8115 105.415 13.83 102.828 15.7024 100.268C17.6092 97.6862 20.3661 95.3197 23.9731 93.1681C26.4464 91.6926 29.0322 90.5228 31.7303 89.6584C34.4423 88.7393 37.0161 88.2519 39.4515 88.1964L41.0492 99.1901C36.4453 99.5145 32.5632 100.619 29.4029 102.505C26.2768 104.369 25.1646 106.057 26.0663 107.569C26.4966 108.29 27.2882 108.563 28.4411 108.388C29.5736 108.178 31.3276 107.644 33.7034 106.786C36.7589 105.662 39.4363 104.88 41.7355 104.44C44.0142 103.965 46.2914 104.074 48.5671 104.766C50.8772 105.437 52.811 107.078 54.3684 109.689C55.7208 111.956 56.3148 114.396 56.1504 117.01C55.9654 119.589 54.9298 122.186 53.0435 124.801C51.1711 127.362 48.4313 129.719 44.8244 131.87ZM56.1868 87.8545L45.6236 94.1558L39.9986 84.7262L73.2856 64.8695L78.9107 74.2991L68.3475 80.6004L84.239 107.24L72.0784 114.495L56.1868 87.8545ZM116.978 79.1871L103.272 87.3634L104.6 95.0945L92.2331 102.472L86.4841 56.9962L98.4386 49.865L135.723 76.5288L123.15 84.0288L116.978 79.1871ZM108.403 72.4253L99.4895 65.4466L101.395 76.6057L108.403 72.4253ZM148.977 50.8767L156.784 63.9648L144.624 71.219L136.724 57.9763L109.504 43.2642L122.334 35.6105L137.141 43.6847L137.123 26.7887L148.871 19.7804L148.977 50.8767Z" fill="#ECF1F7"/>
<path d="M281.197 37.0322L259.286 72.8624L247.206 65.4751L255.282 52.2691L244.123 45.4453L236.047 58.6513L223.968 51.264L245.879 15.4338L257.959 22.8211L250.196 35.5152L261.355 42.3391L269.117 29.6449L281.197 37.0322ZM283.391 88.7286C279.535 86.3705 276.562 83.4505 274.471 79.9685C272.381 76.4866 271.332 72.7973 271.323 68.9008C271.336 64.9701 272.438 61.2132 274.629 57.6302C276.82 54.0472 279.652 51.3717 283.124 49.6037C286.617 47.8015 290.39 47.0376 294.442 47.3119C298.494 47.5862 302.448 48.9023 306.304 51.2604C310.16 53.6185 313.133 56.5385 315.223 60.0205C317.314 63.5024 318.353 67.2087 318.34 71.1394C318.348 75.036 317.257 78.7758 315.066 82.3588C312.875 85.9418 310.032 88.6344 306.539 90.4366C303.067 92.2046 299.305 92.9514 295.253 92.6772C291.201 92.4029 287.247 91.0867 283.391 88.7286ZM289.369 78.9521C290.871 79.8703 292.438 80.3362 294.07 80.35C295.758 80.3505 297.367 79.9045 298.898 79.0119C300.449 78.0851 301.778 76.7175 302.884 74.9089C303.99 73.1004 304.591 71.3115 304.688 69.5425C304.807 67.7393 304.47 66.1038 303.68 64.6359C302.945 63.1548 301.827 61.9552 300.325 61.037C298.824 60.1188 297.229 59.6594 295.542 59.6589C293.909 59.6451 292.317 60.1016 290.766 61.0283C289.235 61.9209 287.917 63.2715 286.811 65.0801C285.705 66.8887 285.093 68.6945 284.975 70.4977C284.878 72.2668 285.197 73.8919 285.932 75.373C286.722 76.8408 287.868 78.0339 289.369 78.9521ZM340.486 122.519L350.369 106.128L334.575 114.474L329.252 111.218L329.14 93.9198L319.499 109.685L308.494 102.955L330.406 67.1249L340.336 73.1975L340.331 99.4267L363.37 87.2834L373.3 93.356L351.491 129.249L340.486 122.519ZM392.693 141.927L387.121 151.038L357.331 132.82L379.243 96.9902L408.367 114.801L402.796 123.912L385.546 113.363L382.979 117.561L398.13 126.826L392.809 135.528L377.658 126.262L374.778 130.971L392.693 141.927Z" fill="#ECF1F7"/>
<path d="M321.461 157.518H276.461V213.913H321.461V157.518Z" fill="#BEC7CE"/>
<path d="M317.127 162.948H280.794V208.481H317.127V162.948Z" fill="white"/>
<path d="M276.461 213.912L280.794 208.482H317.127L321.461 213.912H276.461Z" fill="#D9E1E8"/>
<path d="M276.461 157.518L280.794 162.948H317.127L321.461 157.518H276.461Z" fill="#D9E1E8"/>
<path d="M298.961 186.644C303.295 186.644 306.808 182.652 306.808 177.728C306.808 172.804 303.295 168.812 298.961 168.812C294.627 168.812 291.114 172.804 291.114 177.728C291.114 182.652 294.627 186.644 298.961 186.644Z" fill="#DCEDFF"/>
<path d="M298.961 237.56C309.653 237.56 318.32 226.994 318.32 213.96C318.32 200.926 309.653 190.36 298.961 190.36C288.269 190.36 279.602 200.926 279.602 213.96C279.602 226.994 288.269 237.56 298.961 237.56Z" fill="#DCEDFF"/>
<path d="M189.467 158.341H70.05V244.589H189.467V158.341Z" fill="white"/>
<path d="M70.05 201.465H189.466" stroke="#F7F8FC" stroke-width="5" stroke-miterlimit="10"/>
<path d="M129.758 158.341V244.59" stroke="#F7F8FC" stroke-width="5" stroke-miterlimit="10"/>
<path d="M201.446 393.359C273.427 393.359 331.779 383.855 331.779 372.132C331.779 360.408 273.427 350.905 201.446 350.905C129.465 350.905 71.113 360.408 71.113 372.132C71.113 383.855 129.465 393.359 201.446 393.359Z" fill="#ECF1F7"/>
<path d="M201.446 382.781C259.863 382.781 307.219 376.54 307.219 368.843C307.219 361.145 259.863 354.905 201.446 354.905C143.029 354.905 95.6731 361.145 95.6731 368.843C95.6731 376.54 143.029 382.781 201.446 382.781Z" fill="#D9E1E8"/>
<path d="M201.446 371.83C231.519 371.83 255.899 369.438 255.899 366.489C255.899 363.539 231.519 361.148 201.446 361.148C171.372 361.148 146.993 363.539 146.993 366.489C146.993 369.438 171.372 371.83 201.446 371.83Z" fill="#BEC7CE"/>
<path d="M127.013 312.688H96.981C96.981 312.688 107.145 359.09 108.062 362.567C108.979 366.044 108.979 369.789 113.106 369.789C116.01 369.789 127.014 369.789 127.014 369.789C127.014 369.789 138.018 369.789 140.922 369.789C145.049 369.789 145.049 366.044 145.966 362.567C146.883 359.09 157.046 312.688 157.046 312.688H127.013Z" fill="#DCEDFF"/>
<path d="M127.013 317.027C143.599 317.027 157.045 315.084 157.045 312.688C157.045 310.291 143.599 308.349 127.013 308.349C110.427 308.349 96.981 310.291 96.981 312.688C96.981 315.084 110.427 317.027 127.013 317.027Z" fill="white"/>
<path d="M127.013 314.547C141.381 314.547 153.028 313.558 153.028 312.339C153.028 311.119 141.381 310.131 127.013 310.131C112.645 310.131 100.998 311.119 100.998 312.339C100.998 313.558 112.645 314.547 127.013 314.547Z" fill="#5F8ED2"/>
<path d="M101.796 323.862L110.355 362.567" stroke="#7CAAF2" stroke-miterlimit="10" stroke-linecap="round" stroke-linejoin="round"/>
<path d="M123.575 260.663C124.007 270.596 119.968 299.977 121.793 314.502C123.48 314.531 125.225 314.546 127.014 314.546C127.298 314.546 127.578 314.545 127.86 314.544C127.438 310.791 125.653 303.318 125.41 295.909C125.066 285.424 128.772 272.068 127.951 261.38C127.129 250.692 127.129 237.415 127.244 226.229C127.359 215.043 123.232 195.838 121.742 194.494C120.252 193.15 117.501 194.984 116.698 196.073C116.236 196.701 123.117 206.449 123.576 219.801C124.035 233.153 123.116 250.115 123.575 260.663Z" fill="#9BC3F7"/>
<path d="M121.741 194.495C120.251 193.151 117.5 194.985 116.697 196.074C116.645 196.144 116.689 196.333 116.801 196.622C118.46 196.313 120.526 195.722 121.834 194.608C121.803 194.567 121.771 194.522 121.741 194.495Z" fill="#DCEDFF"/>
<path d="M122.372 306.744C122.372 306.744 107.871 293.37 103.172 287.391C98.4719 281.412 89.0729 275.222 84.7169 268.803C80.3609 262.384 75.7759 250.979 76.6929 251.008C77.6099 251.036 89.6459 263.072 96.9819 265.938C104.318 268.804 109.935 274.621 111.31 278.876C112.685 283.132 122.372 306.744 122.372 306.744Z" fill="#7CAAF2"/>
<path d="M80.9341 257.456C80.9341 257.456 91.0211 268.804 98.5861 273.503C106.151 278.203 116.954 297.314 121.984 306.385" stroke="#A8C9EF" stroke-width="0.75" stroke-miterlimit="10" stroke-linecap="round" stroke-linejoin="round"/>
<path opacity="0.3" d="M95.083 279.387C98.136 282.097 101.107 284.764 103.172 287.391C107.872 293.37 122.372 306.744 122.372 306.744C122.372 306.744 114.067 286.499 111.748 280.128C108.228 277.236 105.045 273.326 99.733 274.42C96.701 274.984 95.365 276.895 95.083 279.387Z" fill="#7CAAF2"/>
<path d="M125.065 312.688C125.065 312.688 126.555 294.823 133.891 286.456C141.227 278.088 146.614 272.582 148.334 266.567C150.053 260.551 151.773 254.591 152.117 255.049C152.461 255.507 151.429 281.42 145.583 290.3C139.737 299.179 125.065 312.688 125.065 312.688Z" fill="#7CAAF2"/>
<path d="M149.939 267.896C149.71 267.772 143.864 281.871 140.311 286.456C136.758 291.041 127.244 305.106 125.066 312.688" stroke="#A8C9EF" stroke-width="0.75" stroke-miterlimit="10" stroke-linecap="round" stroke-linejoin="round"/>
<path opacity="0.3" d="M131.783 289.361C126.264 298.364 125.065 312.688 125.065 312.688C125.065 312.688 139.737 299.179 145.583 290.299C146.6 288.754 147.468 286.687 148.212 284.335C147.23 283.808 145.925 283.528 144.208 283.589C140.172 283.835 135.687 286.239 131.783 289.361Z" fill="#7CAAF2"/>
<path d="M124.377 277.869C124.377 277.869 118.875 260.412 112.456 253.948C106.037 247.484 99.9621 244.389 95.9501 239.001C91.9381 233.614 89.5311 231.092 89.4161 231.894C89.3011 232.696 92.2821 245.42 96.5231 252.068C100.764 258.716 117.005 266.332 124.377 277.869Z" fill="#7CAAF2"/>
<path d="M94.689 241.637C94.689 241.637 101.452 251.535 107.527 255.527C113.602 259.519 124.183 277.274 124.183 277.274" stroke="#A8C9EF" stroke-width="0.75" stroke-miterlimit="10" stroke-linecap="round" stroke-linejoin="round"/>
<path opacity="0.3" d="M117.636 261.537C116.379 260.216 114.927 259.007 113.258 257.914C109.131 255.392 106.38 253.329 101.337 254.246C100.337 254.422 99.5371 254.63 98.9331 254.902C105.108 260.907 118.027 267.933 124.376 277.869C124.377 277.869 121.574 268.979 117.636 261.537Z" fill="#7CAAF2"/>
<path d="M124.184 287.392C124.184 287.392 123.804 270.523 132.172 261.926C140.54 253.329 144.781 252.087 147.073 246.47C149.365 240.853 150.24 237.74 150.662 237.969C151.085 238.198 147.76 257.111 142.488 264.562C137.215 272.013 126.809 278.926 124.184 287.392Z" fill="#7CAAF2"/>
<path d="M146.614 251.008C146.614 251.008 141.497 258.669 136.642 262.674C128.733 269.199 124.792 280.074 124.184 287.391" stroke="#A8C9EF" stroke-width="0.75" stroke-miterlimit="10" stroke-linecap="round" stroke-linejoin="round"/>
<path opacity="0.3" d="M142.505 264.537C141.391 261.874 139.573 259.678 137.101 259.06C136.512 258.905 135.939 258.829 135.374 258.789C134.378 259.72 133.317 260.749 132.172 261.925C123.804 270.522 124.184 287.39 124.184 287.39C126.809 278.924 137.215 272.012 142.488 264.561C142.494 264.554 142.499 264.545 142.505 264.537Z" fill="#7CAAF2"/>
<path d="M125.867 258.56C125.867 258.56 126.899 246.513 134.235 238.552C141.571 230.591 146.041 227.038 146.615 224.401C147.188 221.765 149.137 215.527 149.481 215.436C149.825 215.345 147.762 232.286 145.584 236.998C143.405 241.71 130.452 250.421 125.867 258.56Z" fill="#7CAAF2"/>
<path d="M146.614 228.251C146.614 228.251 143.29 234.578 139.851 236.998C136.412 239.417 127.357 250.765 125.867 259.018" stroke="#A8C9EF" stroke-width="0.75" stroke-miterlimit="10" stroke-linecap="round" stroke-linejoin="round"/>
<path opacity="0.3" d="M125.867 258.56C129.475 252.156 138.26 245.399 142.903 240.514C143.381 238.153 143.454 235.853 142.831 234.072C142.421 232.636 141.84 231.781 141.149 231.347C139.271 233.263 136.95 235.604 134.234 238.552C126.899 246.513 125.867 258.56 125.867 258.56Z" fill="#7CAAF2"/>
<path d="M125.065 246.28C125.065 246.28 118.204 233.255 110.296 229.534C102.388 225.813 98.379 222.035 95.95 219.389C93.266 216.465 92.747 213.925 92.282 214.414C91.817 214.904 97.853 231.37 100.528 234.173C103.202 236.977 117.39 241.512 125.065 246.28Z" fill="#7CAAF2"/>
<path d="M99.1021 225.3C99.1021 225.3 103.432 230.93 106.632 232.209C109.832 233.488 120.924 241.12 125.066 246.28" stroke="#A8C9EF" stroke-width="0.75" stroke-miterlimit="10" stroke-linecap="round" stroke-linejoin="round"/>
<path opacity="0.3" d="M110.296 229.535C108.113 228.508 106.237 227.477 104.599 226.466C102.418 228.174 102.441 232.354 103.684 236.214C109.019 238.944 119.044 242.54 125.064 246.28C125.065 246.28 118.204 233.256 110.296 229.535Z" fill="#7CAAF2"/>
<path d="M125.065 232.377C125.065 232.377 120.928 216.117 115.653 212.394C110.378 208.671 106.564 205.026 103.765 201.781C100.966 198.535 98.794 196.039 98.38 196.511C97.966 196.983 102.724 212.8 106.137 216.372C109.551 219.944 119.376 224.744 125.065 232.377Z" fill="#7CAAF2"/>
<path d="M102.311 203.465C102.311 203.465 108.181 213.178 111.71 215.268C115.239 217.358 121.962 226.296 125.065 232.377" stroke="#A8C9EF" stroke-width="0.75" stroke-miterlimit="10" stroke-linecap="round" stroke-linejoin="round"/>
<path opacity="0.3" d="M125.065 232.377C125.065 232.377 121.949 220.139 117.679 214.467C117.361 214.423 117.043 214.378 116.698 214.357C113.562 214.2 109.247 215.543 105.512 215.602C105.725 215.898 105.934 216.158 106.138 216.372C109.551 219.944 119.376 224.744 125.065 232.377Z" fill="#7CAAF2"/>
<path d="M125.065 211.835C125.065 211.835 123.002 200.165 125.867 194.022C128.733 187.879 128.092 183.523 128.069 181.46C128.045 179.397 130.682 184.67 131.255 189.14C131.828 193.609 124.721 206.906 125.065 211.835Z" fill="#7CAAF2"/>
<path d="M129.191 188.305C129.191 188.305 129.078 193.377 127.817 196.416C126.555 199.455 124.721 206.643 125.065 211.13" stroke="#A8C9EF" stroke-width="0.75" stroke-miterlimit="10" stroke-linecap="round" stroke-linejoin="round"/>
<path opacity="0.3" d="M125.065 211.835C124.832 208.502 128.003 201.347 129.905 195.678C128.75 193.408 127.391 192.957 126.091 193.511C126.016 193.682 125.947 193.848 125.867 194.021C123.002 200.165 125.065 211.835 125.065 211.835Z" fill="#7CAAF2"/>
<path d="M122.604 204.756C122.604 204.756 118.57 197.451 112.077 195.475C105.585 193.498 99.6959 187.509 98.3819 186.027C97.0669 184.546 100.653 193.67 104.382 197.11C108.111 200.55 118.505 201.959 122.604 204.756Z" fill="#7CAAF2"/>
<path d="M103.229 192.627C103.229 192.627 107.872 197.162 111.311 198.194C114.75 199.226 119.768 202.179 122.604 204.756" stroke="#A8C9EF" stroke-width="0.75" stroke-miterlimit="10" stroke-linecap="round" stroke-linejoin="round"/>
<path opacity="0.3" d="M122.604 204.756C122.604 204.756 118.57 197.451 112.077 195.475C111.229 195.217 110.393 194.888 109.574 194.512C108.356 194.732 107.244 195.055 106.381 195.559C105.49 196.116 104.952 196.721 104.684 197.353C108.631 200.614 118.605 202.027 122.604 204.756Z" fill="#7CAAF2"/>
<path d="M125.704 235.856C125.704 235.856 137.204 226.634 137.529 219.872C137.854 213.109 138.542 204.659 139.688 200.345C140.834 196.03 142.754 193.852 143.399 192.821C144.044 191.789 137.431 196.071 135.236 199.661C133.04 203.251 130.862 215.287 130.518 219.872C130.175 224.457 125.704 235.856 125.704 235.856Z" fill="#7CAAF2"/>
<path d="M136.078 204.397C136.078 204.397 133.613 214.255 133.155 219.871C132.696 225.488 125.704 235.855 125.704 235.855" stroke="#A8C9EF" stroke-width="0.75" stroke-miterlimit="10" stroke-linecap="round" stroke-linejoin="round"/>
<path opacity="0.3" d="M137.53 219.872C137.637 217.652 137.783 215.251 137.972 212.874C135.728 213.824 132.763 216.738 130.586 219.138C130.561 219.395 130.536 219.649 130.519 219.872C130.175 224.457 125.705 235.857 125.705 235.857C125.705 235.857 137.205 226.635 137.53 219.872Z" fill="#7CAAF2"/>
<path d="M266.21 363.719L227.268 349.535V319.116C227.268 317.922 226.3 316.953 225.105 316.953C223.911 316.953 222.942 317.921 222.942 319.116V349.37L183.547 363.719C182.425 364.128 181.847 365.368 182.256 366.491C182.576 367.369 183.405 367.914 184.288 367.914C184.534 367.914 184.784 367.872 185.028 367.782L222.942 353.972V365.75C222.942 366.944 223.91 367.913 225.105 367.913C226.299 367.913 227.268 366.945 227.268 365.75V354.138L264.729 367.783C264.973 367.873 265.223 367.915 265.469 367.915C266.352 367.915 267.181 367.369 267.501 366.492C267.91 365.369 267.332 364.128 266.21 363.719Z" fill="#5F8ED2"/>
<path d="M278.223 308.715C273.76 314.147 230.973 320.068 209.388 318.987C187.803 317.906 168.61 318.446 160.231 308.715C151.852 298.984 149.549 271.412 158.078 261.568C171.262 246.351 186.651 251.657 192.994 244.255C199.337 236.852 221.648 195.077 241.315 188.19C260.982 181.303 274.904 185.08 285.686 198.917C296.468 212.754 293.605 249.517 290.306 269.925C287.007 290.334 281.332 304.931 278.223 308.715Z" fill="#DCEDFF"/>
<path d="M285.686 198.918C274.904 185.081 260.983 181.304 241.315 188.191C240.651 188.423 239.984 188.703 239.315 189.012C233.151 197.231 230.146 208.854 225.376 236.948C219.549 271.268 226.882 318.672 226.888 318.712C248.601 317.372 274.784 312.9 278.222 308.715C279.107 307.638 280.2 305.683 281.386 302.97C284.814 288.71 288.764 271.7 292.176 255.509C294.203 235.289 294.238 209.894 285.686 198.918Z" fill="#C3DAF9"/>
<path d="M288.08 281.429C283.846 277.497 275.544 273.596 259.926 271.016C216.626 263.862 172.711 287.48 167.259 292.497C161.815 297.507 165.896 313.074 165.907 313.117C175.759 318.3 191.776 318.105 209.388 318.987C230.973 320.068 273.76 314.147 278.223 308.715C280.71 305.688 284.838 295.736 288.08 281.429Z" fill="#7CAAF2"/>
<path d="M288.08 281.429C287.974 281.331 287.855 281.233 287.744 281.135C280.87 294.06 245.831 295.434 223.001 298.566C204.121 301.156 177.157 296.811 165.714 294.667C162.724 300.961 165.897 313.078 165.907 313.116C175.759 318.299 191.776 318.104 209.388 318.986C230.973 320.067 273.76 314.146 278.223 308.714C280.71 305.688 284.838 295.736 288.08 281.429Z" fill="#C3DAF9"/>
<path d="M249.752 189.982C239.43 193.057 230.242 211.082 226.728 218.65C223.214 226.219 215.606 228.027 211.03 236.271C206.454 244.515 209.854 248.172 217.272 246.137C225.647 243.839 237.651 236.128 241.315 233.432C247.984 228.526 251.321 227.466 257.223 207.888C261.338 194.239 257.864 187.566 249.752 189.982Z" fill="#FCDCD1"/>
<path d="M230.22 207.095C229.889 208.041 233.058 212.738 238.532 215.892C244.006 219.046 252.79 222.564 254.345 221.075C255.9 219.586 259.557 208.295 259.767 202.754C259.977 197.213 260.923 189.607 253.895 188.341C246.867 187.076 240.113 194.104 236.259 198.294C232.404 202.483 230.761 205.552 230.22 207.095Z" fill="#B26683"/>
<path d="M230.196 201.433C230.196 201.433 239.314 213.34 257.687 217.98" stroke="#FFF1CA" stroke-width="3" stroke-miterlimit="10"/>
<path d="M168.425 280.808C166.274 282.467 158.478 290.945 158.112 293.707C157.746 296.469 159.913 297.583 163.571 296.731C167.229 295.88 180.434 287.685 181.138 285.347C181.842 283.009 179.562 278.047 177.803 277.157C176.046 276.267 168.425 280.808 168.425 280.808Z" fill="#EF98A1"/>
<path d="M169.708 293.856C169.365 290.615 164.653 289.165 161.217 288.537C159.563 290.636 158.257 292.617 158.113 293.706C157.747 296.468 159.914 297.582 163.572 296.73C164.809 296.443 167.139 295.314 169.708 293.856Z" fill="#B26683"/>
<path d="M177.881 277.205C177.143 280.243 176.218 285.251 177.705 288.689C179.579 287.285 180.927 286.05 181.139 285.346C181.833 283.042 179.628 278.196 177.881 277.205Z" fill="#B26683"/>
<path d="M195.371 275.023C188.287 273.106 179.288 254.043 179.288 254.043C179.288 254.043 178.342 264.655 177.666 267.358C176.99 270.061 180.91 270.602 180.639 272.088C180.369 273.575 178.206 274.444 178.206 275.023C178.206 275.602 180.909 276.954 180.368 278.035C179.827 279.116 176.156 279.792 171.977 280.603C167.798 281.414 165.095 280.896 164.419 279.95C163.743 279.004 166.176 276.441 165.365 274.749C164.554 273.057 161.671 271.705 161.491 269.137C161.311 266.569 164.014 265.353 162.662 261.568C161.31 257.784 154.012 228.777 155.499 219.549C156.986 210.321 164.986 208.031 170.772 209.78C176.398 211.481 195.97 225.487 204.02 234.67C214.342 246.443 219.942 256.271 214.968 265.194C209.994 274.118 201.724 276.742 195.371 275.023Z" fill="#7CAAF2"/>
<path d="M209.387 271.86C209.387 271.86 208.891 271.32 208.041 270.385" stroke="#A8C9EF" stroke-width="0.75" stroke-linecap="round" stroke-linejoin="round"/>
<path d="M206.043 268.176C201.29 262.898 192.664 253.152 188.208 247.084C181.856 238.434 178.759 229.108 178.759 229.108C178.759 229.108 177.536 220.952 175.236 221.448C172.935 221.945 176.455 227.351 175.236 227.621C174.017 227.891 173.206 226.473 172.665 226.777C172.124 227.081 174.022 231.336 175.236 239.007C176.45 246.678 173.746 264.383 174.152 267.222C174.558 270.06 176.05 271.006 175.236 272.898C174.888 273.708 175.036 275.075 175.32 276.374" stroke="#A8C9EF" stroke-width="0.75" stroke-linecap="round" stroke-linejoin="round" stroke-dasharray="3.98 2.98"/>
<path d="M175.692 277.823C176.009 278.912 176.32 279.721 176.32 279.721" stroke="#A8C9EF" stroke-width="0.75" stroke-linecap="round" stroke-linejoin="round"/>
<path d="M165.907 267.223C165.907 267.223 170.244 269.656 176.32 269.926" stroke="#525BA6" stroke-width="0.75" stroke-miterlimit="10" stroke-linecap="round" stroke-linejoin="round"/>
<path d="M167.259 273.78C167.259 273.78 170.92 273.092 176.32 275.023" stroke="#525BA6" stroke-width="0.75" stroke-miterlimit="10" stroke-linecap="round" stroke-linejoin="round"/>
<path d="M170.773 209.781C164.987 208.032 156.987 210.322 155.5 219.55C155.414 220.083 155.361 220.689 155.33 221.346C155.917 222.331 156.793 223.018 158.077 223.164C162.632 223.681 170.209 216.676 172.028 210.261C171.558 210.053 171.135 209.891 170.773 209.781Z" fill="#5F8ED2"/>
<path d="M177.666 223.973C177.666 223.973 181.315 236.403 179.288 254.043" stroke="#525BA6" stroke-width="0.75" stroke-miterlimit="10" stroke-linecap="round" stroke-linejoin="round"/>
<path d="M174.152 219.55C174.152 219.55 176.45 222.825 176.315 226.778" stroke="#525BA6" stroke-width="0.75" stroke-miterlimit="10" stroke-linecap="round" stroke-linejoin="round"/>
<path d="M148.607 336.963C145.904 336.693 134.416 337.504 132.253 339.261C130.09 341.018 130.901 343.316 134.145 345.208C137.389 347.1 152.616 350.209 154.734 348.992C156.851 347.776 158.6 342.602 157.933 340.747C157.266 338.893 148.607 336.963 148.607 336.963Z" fill="#EF98A1"/>
<path d="M140.582 347.33C142.557 344.738 140.128 340.449 138.06 337.633C135.416 338.023 133.107 338.567 132.254 339.26C130.091 341.017 130.902 343.315 134.146 345.207C135.243 345.847 137.713 346.626 140.582 347.33Z" fill="#B26683"/>
<path d="M157.956 340.835C155.334 342.537 151.223 345.543 149.943 349.064C152.27 349.33 154.098 349.357 154.735 348.991C156.822 347.793 158.546 342.755 157.956 340.835Z" fill="#B26683"/>
<path d="M214.023 258.798C204.061 263.171 187.532 273.034 177.981 284.928C168.43 296.822 153.293 325.114 151.49 326.556C149.688 327.998 146.985 327.637 146.084 328.719C145.183 329.8 148.427 331.963 147.886 332.864C147.345 333.765 145.363 334.125 144.462 335.026C143.561 335.927 147.526 340.252 151.31 341.513C155.094 342.775 158.338 343.676 159.059 342.594C159.78 341.513 160.32 337.728 161.582 337.188C162.843 336.647 164.826 337.549 165.727 335.927C166.628 334.305 166.087 331.962 167.529 330.701C168.971 329.439 191.857 306.553 197.444 303.85C203.03 301.147 225.435 294.479 236.578 288.893C247.721 283.307 268.183 274.681 254.209 258.798C244.973 248.301 214.928 258.4 214.023 258.798Z" fill="#9BC3F7"/>
<path d="M156.118 342.889C156.118 342.889 156.204 342.131 156.547 340.939" stroke="#C1DBF4" stroke-width="0.75" stroke-linecap="round" stroke-linejoin="round"/>
<path d="M157.603 338.121C157.608 338.11 157.613 338.1 157.618 338.089C158.879 335.386 159.42 334.305 161.583 334.305C163.745 334.305 163.565 331.782 163.025 329.98C162.484 328.178 163.566 328.358 165.548 327.637C167.53 326.916 180.145 313.22 187.894 305.652C195.643 298.083 201.409 294.84 207.356 292.677C212.889 290.665 243.937 280.204 256.173 268.898" stroke="#C1DBF4" stroke-width="0.75" stroke-linecap="round" stroke-linejoin="round" stroke-dasharray="4.01 3.01"/>
<path d="M257.252 267.847C257.735 267.35 258.179 266.852 258.581 266.353" stroke="#C1DBF4" stroke-width="0.75" stroke-linecap="round" stroke-linejoin="round"/>
<path d="M150.59 331.782C150.59 331.782 155.996 334.665 158.88 337.909" stroke="#525BA6" stroke-width="0.75" stroke-miterlimit="10" stroke-linecap="round" stroke-linejoin="round"/>
<path d="M154.735 328.358C154.735 328.358 159.836 330.758 164.466 329.98" stroke="#525BA6" stroke-width="0.75" stroke-miterlimit="10" stroke-linecap="round" stroke-linejoin="round"/>
<path d="M177.981 284.928C176.161 287.194 174.138 290.058 172.043 293.216C172.373 296.318 174.038 298.707 177.621 298.56C184.829 298.263 190.596 293.219 193.119 286.19C194.967 281.042 193.524 275.039 189.224 273.958C185.043 277.314 181.13 281.007 177.981 284.928Z" fill="#5F8ED2"/>
<path d="M270.022 183.021C275.294 185.556 288.899 199.105 290.251 210.052C291.603 221 267.68 265.331 253.489 278.035C253.489 278.035 245.38 272.494 237.135 272.088C228.89 271.682 214.158 266.411 211.726 258.708C209.293 251.004 214.024 242.76 214.024 242.76C214.024 242.76 220.376 237.083 224.161 234.11C227.945 231.137 230.919 227.893 230.919 226.001C230.919 224.109 229.526 215.459 231.979 210.728C234.433 205.998 245.349 194.419 248.863 191.581C252.376 188.742 264.12 180.182 270.022 183.021Z" fill="#EF98A1"/>
<path d="M233.561 226.839C233.561 226.839 238.621 226.36 242.27 230.235" stroke="#B26683" stroke-width="0.75" stroke-miterlimit="10" stroke-linecap="round" stroke-linejoin="round"/>
<path d="M236.578 229.109C236.578 229.109 241.693 230.638 244.009 234.671" stroke="#B26683" stroke-width="0.75" stroke-miterlimit="10" stroke-linecap="round" stroke-linejoin="round"/>
<path d="M251.536 222.052C249.031 226.314 243.905 227.757 240.057 226.12C236.568 224.635 234.522 220.767 235.309 216.829C236.245 212.151 240.915 208.363 246.152 209.338C252.166 210.458 254.634 216.781 251.536 222.052Z" fill="#FFF1CA"/>
<path d="M241.158 216.153C240.87 217.053 240.283 217.641 239.842 217.497C239.406 217.355 239.255 216.543 239.507 215.653C239.769 214.731 240.366 214.062 240.838 214.193C241.316 214.327 241.457 215.219 241.158 216.153Z" fill="#EF98A1"/>
<path d="M247 217.919C246.576 218.852 245.827 219.446 245.319 219.281C244.817 219.118 244.711 218.264 245.089 217.341C245.482 216.381 246.252 215.697 246.801 215.85C247.357 216.004 247.442 216.948 247 217.919Z" fill="#EF98A1"/>
<path d="M238.004 218.468C238.004 218.468 238.821 220.95 241.379 221.915C244.122 222.949 246.338 221.362 246.338 221.362" stroke="#EF98A1" stroke-width="0.75" stroke-miterlimit="10" stroke-linecap="round" stroke-linejoin="round"/>
<path d="M271.562 189.982C271.562 189.982 272.119 190.505 272.999 191.371" stroke="#FFF1CA" stroke-width="0.75" stroke-linecap="round" stroke-linejoin="round"/>
<path d="M275.145 193.534C278.571 197.07 283.331 202.398 284.124 205.456C285.385 210.322 278.414 225.643 274.962 234.021C271.882 241.496 257.478 263.255 250.255 272.335" stroke="#FFF1CA" stroke-width="0.75" stroke-linecap="round" stroke-linejoin="round" stroke-dasharray="4.06 3.05"/>
<path d="M249.295 273.517C248.811 274.099 248.371 274.605 247.984 275.023" stroke="#FFF1CA" stroke-width="0.75" stroke-linecap="round" stroke-linejoin="round"/>
<path d="M270.022 192.887C271.676 190.234 272.692 187.461 273.142 185.055C271.943 184.129 270.873 183.43 270.022 183.02C265.865 181.021 258.812 184.676 253.776 188.004C253.001 190.389 251.981 194.892 254.356 197.211C257.678 200.456 266.147 199.104 270.022 192.887Z" fill="#B26683"/>
<path d="M233.561 266.006C224.311 264.519 216.456 260.329 215.509 253.842C214.863 249.409 216.487 243.15 217.582 239.628C215.566 241.381 214.023 242.76 214.023 242.76C214.023 242.76 209.293 251.004 211.725 258.708C214.158 266.412 228.89 271.683 237.134 272.088C245.379 272.493 253.488 278.035 253.488 278.035C254.588 277.051 255.751 275.857 256.95 274.523C252.436 269.165 241.313 267.252 233.561 266.006Z" fill="#B26683"/>
<path d="M258.894 139.095C258.894 139.095 252.947 138.081 252.271 134.838C251.595 131.595 252.068 126.458 256.393 126.256C256.393 126.256 258.802 123.283 263.882 124.567C268.962 125.851 271.327 130.514 270.381 133.42C270.381 133.42 272.412 135.785 270.585 137.948C268.761 140.109 266.328 144.636 258.894 139.095Z" fill="#3E4B8C"/>
<path d="M256.394 126.255C254.772 128.012 254.569 135.784 258.894 139.095C258.894 139.095 265.941 140.987 270.382 133.419" stroke="#525BA6" stroke-width="0.5" stroke-miterlimit="10" stroke-linecap="round" stroke-linejoin="round"/>
<path d="M269.691 128.877C269.691 128.877 269.125 135.742 264.55 138.635" stroke="#525BA6" stroke-width="0.5" stroke-miterlimit="10" stroke-linecap="round" stroke-linejoin="round"/>
<path d="M257.687 126.255C257.687 126.255 254.225 124.43 251.492 127.607C248.758 130.783 249.544 138.13 254.963 137.768" stroke="#3E4B8C" stroke-miterlimit="10" stroke-linecap="round" stroke-linejoin="round"/>
<path d="M237.067 142.879C237.067 142.879 229.431 145.85 227.336 153.285C225.241 160.72 230.957 165.976 235.107 164.826" stroke="#525BA6" stroke-miterlimit="10" stroke-linecap="round" stroke-linejoin="round"/>
<path d="M262.523 141.21C262.523 141.21 264.885 144.569 267.972 142.88C271.059 141.191 273.154 141.191 273.694 142.88C274.235 144.569 272.628 145.388 271.349 143.663C270.07 141.937 273.018 138.502 275.248 139.306" stroke="#525BA6" stroke-miterlimit="10" stroke-linecap="round" stroke-linejoin="round"/>
<path d="M265.942 168.491C265.942 168.491 267.616 175.451 268.425 178.019C269.234 180.587 270.248 182.874 269.977 183.893C269.707 184.912 266.868 192.413 260.854 194.981C257.234 196.527 255.448 195.116 255.651 192.345C255.854 189.574 255.313 184.421 253.894 181.896L265.942 168.491Z" fill="#FCDCD1"/>
<path d="M266.869 172.247C266.355 170.207 265.942 168.492 265.942 168.492L253.894 181.897C254.762 183.442 255.3 185.971 255.542 188.337C256.15 188.347 256.858 188.252 257.687 188.022C263.661 186.363 266.002 177.439 266.869 172.247Z" fill="#F5B9B8"/>
<path d="M244.298 144.456C237.312 146.348 231.593 154.187 234.206 164.729C236.819 175.271 244.207 183.29 249.073 183.831C253.939 184.372 260.246 181.308 262.859 177.794C265.472 174.28 266.259 170.242 265.832 164.369C265.381 158.166 263.129 151.935 259.074 147.43C254.912 142.804 248.623 143.285 244.298 144.456Z" fill="#FCDCD1"/>
<path d="M264.051 154.935C264.051 154.935 263.025 157.23 262.139 158.692C261.261 160.141 260.923 160.517 260.179 159.03C259.436 157.543 258.016 152.745 256.732 152.407C255.448 152.069 253.421 152.475 253.015 151.596C252.772 151.07 251.704 147.136 247.271 146.055C244.817 145.456 241.311 145.309 239.081 147.216C233.958 151.597 233.561 159.571 233.561 159.571C233.561 159.571 229.566 159.368 229.701 153.759C229.836 148.15 234.137 143.893 238.542 141.325C242.947 138.757 248.466 136.189 254.356 136.797C260.246 137.405 265.095 141.971 265.942 145.109C270.315 161.312 266.261 167.44 266.261 167.44L264.051 154.935Z" fill="#525BA6"/>
<path d="M265.942 166.532L263.883 155.47C263.883 155.47 265.242 150.305 268.52 150.297C273.792 150.285 275.963 162.815 265.942 166.532Z" fill="#F5B9B8"/>
<path d="M272.927 156.036C272.662 152.871 270.913 150.291 268.521 150.297C265.243 150.305 263.884 155.47 263.884 155.47L264.257 157.476C265.769 155.846 268.936 153.442 272.927 156.036Z" fill="#FCDCD1"/>
<path d="M242.946 162.004C242.946 162.004 244.11 166.084 243.345 167.517C242.608 168.897 241.324 170.316 241.595 170.789C241.865 171.262 243.919 172.481 246.461 171.898" stroke="#E5A3A3" stroke-width="0.75" stroke-miterlimit="10" stroke-linecap="round" stroke-linejoin="round"/>
<path d="M250.282 163.839C250.99 163.534 251.21 162.463 250.772 161.445C250.334 160.428 249.405 159.851 248.696 160.156C247.988 160.461 247.768 161.533 248.206 162.55C248.644 163.567 249.573 164.145 250.282 163.839Z" fill="#3E394D"/>
<path d="M246.02 160.776C246.02 160.776 246.907 161.701 248.523 161.121" stroke="#3E394D" stroke-width="0.75" stroke-miterlimit="10" stroke-linecap="round" stroke-linejoin="round"/>
<path d="M240.841 167.353C241.55 167.048 241.769 165.976 241.331 164.959C240.893 163.942 239.964 163.365 239.255 163.67C238.547 163.975 238.327 165.047 238.765 166.064C239.203 167.081 240.132 167.658 240.841 167.353Z" fill="#3E394D"/>
<path d="M236.578 164.29C236.578 164.29 237.465 165.215 239.081 164.635" stroke="#3E394D" stroke-width="0.75" stroke-miterlimit="10" stroke-linecap="round" stroke-linejoin="round"/>
<path d="M236.578 162.837C236.95 161.945 238.189 159.909 239.081 159.323C239.973 158.737 239.408 157.341 238.541 157.251C237.675 157.161 236.638 159.053 236.413 160.044C236.188 161.035 236.179 163.795 236.578 162.837Z" fill="#525BA6"/>
<path d="M245.494 154.413C244.337 154.456 244.135 156.814 245.043 156.888C246.755 157.026 249.053 157.116 250.63 157.657C252.207 158.198 251.401 156.576 249.957 155.63C248.513 154.683 246.711 154.368 245.494 154.413Z" fill="#525BA6"/>
<path d="M246.02 175.452C246.02 175.452 247.181 176.263 248.938 175.857C250.695 175.452 251.866 173.925 251.686 172.053" stroke="#E5A3A3" stroke-width="0.75" stroke-miterlimit="10" stroke-linecap="round" stroke-linejoin="round"/>
<path d="M255.293 168.018C257.059 167.454 258.074 165.693 257.56 164.083C257.046 162.474 255.199 161.626 253.433 162.189C251.667 162.753 250.652 164.514 251.166 166.124C251.679 167.733 253.527 168.581 255.293 168.018Z" fill="#EFABCA"/>
<path d="M236.965 168.009C236.397 168.19 235.918 168.504 235.532 168.888C236.238 170.711 237.074 172.422 237.996 173.989C238.271 173.968 238.548 173.925 238.825 173.837C240.591 173.273 241.606 171.512 241.092 169.902C240.579 168.293 238.731 167.446 236.965 168.009Z" fill="#EFABCA"/>
<path d="M200.855 211.33L209.956 198.788L217.258 229.531L208.604 242.056L200.855 211.33Z" fill="#3E4B8C"/>
<path d="M211.1 244.054L203.108 213.772C203.108 213.772 201.666 213.223 200.855 211.331L208.604 242.056C208.604 242.056 209.631 244.25 211.1 244.054Z" fill="#6875C1"/>
<path d="M203.108 213.772L201.655 212.637L210.046 201.509H212.118L214.46 212.968L203.108 213.772Z" fill="#FFF1CA"/>
<path d="M212.194 201.881L203.108 213.771L214.46 212.968L212.194 201.881Z" fill="#FFDFC0"/>
<path d="M202.387 212.637C202.387 212.637 205 210.453 208.514 210.306C212.028 210.159 214.946 210.666 218.398 210.367C221.85 210.069 225.901 210.306 225.901 210.306L226.533 212.114L203.108 213.772L202.387 212.637Z" fill="#FFF1CA"/>
<path d="M203.108 213.772L227.346 212.056L233.687 244.066L211.1 244.054L203.108 213.772Z" fill="#525BA6"/>
<path d="M207.343 218.629L210.257 230.966L227.172 229.784L224.913 217.097L207.343 218.629Z" fill="#EF98A1"/>
<path d="M203.008 234.993C202.192 232.397 205.447 226.752 207.089 224.234C208.731 221.716 209.604 223.815 207.472 229.614C207.472 229.614 210.906 223.776 212.394 223.776C213.882 223.776 209.884 231.013 209.884 231.013C209.884 231.013 213.882 227.437 214.684 227.781C215.485 228.125 211.708 233.39 211.708 233.39C211.708 233.39 214.907 231.758 215.223 232.818C215.539 233.877 209.313 238.525 208.359 241.059C207.404 243.594 204.267 239 203.008 234.993Z" fill="#FCDCD1"/>
<path d="M253.67 253.626C247.327 261.029 231.938 255.723 218.754 270.94C210.225 280.784 212.528 308.355 220.907 318.087C221.17 318.393 221.444 318.688 221.729 318.974C244.223 318.098 274.506 313.239 278.222 308.716C281.331 304.932 287.006 290.335 290.305 269.926C293.147 252.346 295.657 222.644 289.409 205.901C273.649 220.508 258.679 247.78 253.67 253.626Z" fill="white"/>
<path d="M279.979 201.672C274.406 203.2 268.664 210.998 265.942 218.702C263.22 226.406 262.53 236.137 259.766 237.218C257.002 238.299 249.434 243.976 244.973 248.301C240.513 252.626 234.566 258.978 231.863 258.843C229.16 258.708 224.159 259.523 222.132 258.845C220.105 258.167 219.497 259.316 220.037 260.33C220.578 261.344 222.74 263.168 224.903 262.898C224.903 262.898 218.618 268.237 217.469 271.21C216.32 274.183 220.442 271.413 222.943 269.385C222.943 269.385 218.753 274.115 219.294 275.535C219.835 276.954 224.024 272.224 225.376 271.21C225.376 271.21 222.132 275.4 222.538 276.076C222.943 276.752 224.633 276.211 227.877 272.494C227.877 272.494 226.188 275.966 226.863 276.325C227.539 276.684 236.121 267.696 238.892 266.412C241.663 265.128 254.39 262.583 263.851 258.077C273.312 253.572 280.881 248.886 283.404 244.381C285.927 239.876 292.234 226.811 292.865 216.449C293.494 206.087 285.565 200.14 279.979 201.672Z" fill="#FCDCD1"/>
<path d="M262.318 226.27C261.685 225.426 263.579 218.431 267.634 211.223C271.689 204.015 277.455 199.419 283.673 200.14C289.89 200.861 295.116 208.61 294.125 217.44C293.134 226.27 291.242 231.767 290.521 232.307C289.8 232.848 284.934 235.551 276.825 234.379C268.716 233.208 263.4 227.712 262.318 226.27Z" fill="#B26683"/>
<path d="M261.958 217.981C261.958 217.981 275.865 230.415 294.756 225.82" stroke="#FFF1CA" stroke-width="3" stroke-miterlimit="10"/>
<path d="M263.147 236.948C263.147 236.948 268.087 237.767 271.6 240.534" stroke="#E5A3A3" stroke-width="0.75" stroke-miterlimit="10" stroke-linecap="round" stroke-linejoin="round"/>
<path d="M225.981 351.045C226.323 341.225 238.849 329.738 255.459 329.738C276.574 329.738 291.873 346.834 291.46 356.908C291.047 366.982 285.267 378.955 261.321 377.799C237.375 376.643 225.237 372.348 225.981 351.045Z" fill="#9BC3F7"/>
<path d="M233.128 352.213C233.128 352.213 252.165 356.428 249.334 376.758" stroke="#7CAAF2" stroke-miterlimit="10" stroke-linecap="round" stroke-linejoin="round"/>
<path d="M267.752 336.874C269.764 335.549 271.568 334.607 273.088 333.933C271.853 333.317 270.566 332.76 269.236 332.261C266.848 332.642 264.347 333.426 262.252 334.964C256.127 339.461 257.127 351.734 257.127 351.734C257.127 351.734 262.964 340.027 267.752 336.874Z" fill="#7CAAF2"/>
<path d="M256.991 329.776C254.795 330.191 252.541 330.976 250.628 332.381C244.503 336.878 245.503 349.151 245.503 349.151C245.503 349.151 251.34 337.444 256.128 334.291C259.087 332.343 261.606 331.213 263.409 330.564C261.346 330.134 259.203 329.863 256.991 329.776Z" fill="#7CAAF2"/>
<path d="M245.003 333.259C247.683 331.494 249.944 330.508 251.512 329.963C246.355 330.539 241.694 332.204 237.811 334.524C235.273 339.227 235.83 346.087 235.83 346.087C235.83 346.087 240.87 335.981 245.003 333.259Z" fill="#7CAAF2"/>
<path d="M276.719 349.166C276.292 348.166 264.715 340.353 262.785 341.603C260.855 342.853 259.166 358.275 267.386 362.251L276.719 349.166Z" fill="#FCDCD1"/>
<path d="M262.838 341.58C265.252 343.459 270.82 348.287 273.02 354.353L276.72 349.166C276.296 348.174 264.904 340.482 262.838 341.58Z" fill="#C3DAF9"/>
<path d="M291.783 346.85C291.848 345.811 299.343 335.439 301.351 336.065C303.36 336.69 309.377 350.454 303.589 356.369L291.783 346.85Z" fill="#FCDCD1"/>
<path d="M291.783 346.85L296.463 350.623C296.524 344.426 299.811 338.45 301.3 336.058C299.222 335.61 291.848 345.819 291.783 346.85Z" fill="#9BC3F7"/>
<path d="M281.23 347.541C275.769 348.953 268.767 352.791 268.061 358.791C267.355 364.791 264.652 368.166 264.652 368.166C264.652 368.166 273.355 378.541 287.73 376.291C302.105 374.041 307.23 364.166 306.98 359.166C306.98 359.166 303.43 356.706 300.98 352.624C297.73 347.209 288.48 345.666 281.23 347.541Z" fill="#C3DAF9"/>
<path d="M281.23 347.541C280.322 347.776 279.37 348.084 278.413 348.452C280.755 349.863 284.894 352.744 287.264 356.666C287.264 356.666 287.637 350.372 285.161 346.881C283.819 346.998 282.494 347.214 281.23 347.541Z" fill="#7CAAF2"/>
<path d="M280.474 354.791C279.154 351.909 277.356 350.326 276.05 349.494C274.784 350.132 273.567 350.89 272.471 351.759C276.739 352.072 280.474 354.791 280.474 354.791Z" fill="#7CAAF2"/>
<path d="M290.259 353.916C290.259 353.916 291.583 349.844 291.271 347.09C290.212 346.917 289.121 346.823 288.024 346.795C288.821 348.366 289.994 351.085 290.259 353.916Z" fill="#7CAAF2"/>
<path d="M281.073 370.564C281.073 370.564 272.51 373.689 267.385 379.877" stroke="white" stroke-width="0.75" stroke-miterlimit="10" stroke-linecap="round" stroke-linejoin="round"/>
<path d="M277.575 369.235C277.575 369.235 271.01 368.333 262.786 371.892" stroke="white" stroke-width="0.75" stroke-miterlimit="10" stroke-linecap="round" stroke-linejoin="round"/>
<path d="M301.855 364.228C301.855 364.228 309.168 363.353 318.293 364.916" stroke="white" stroke-width="0.75" stroke-miterlimit="10" stroke-linecap="round" stroke-linejoin="round"/>
<path d="M302.168 360.541C302.168 360.541 307.356 355.791 315.106 353.916" stroke="white" stroke-width="0.75" stroke-miterlimit="10" stroke-linecap="round" stroke-linejoin="round"/>
<path d="M277.648 364.055C277.648 364.055 278.297 366.417 281.148 365.93C283.711 365.492 283.273 362.981 283.273 362.981" stroke="#525BA6" stroke-miterlimit="10" stroke-linecap="round" stroke-linejoin="round"/>
<path d="M293.557 360.02C293.557 360.02 294.418 362.31 297.164 361.559C299.633 360.884 298.965 358.425 298.965 358.425" stroke="#525BA6" stroke-miterlimit="10" stroke-linecap="round" stroke-linejoin="round"/>
<path d="M290.259 371.853C292.225 370.978 291.253 367.322 291.253 367.322C291.253 367.322 292.239 370.952 294.219 370.416" stroke="#525BA6" stroke-miterlimit="10" stroke-linecap="round" stroke-linejoin="round"/>
<path d="M287.289 365.218C286.939 365.96 290.426 367.454 291.253 367.322C292.08 367.19 293.504 364.435 293.215 363.784C292.926 363.133 287.734 364.273 287.289 365.218Z" fill="#5F8ED2"/>
<path d="M226.542 359.674C226.542 359.674 221.378 360.898 221.753 366.556C222.128 372.214 226.428 378.588 235.778 381.838C245.128 385.088 265.334 385.713 269.106 382.338C272.878 378.963 270.738 370.088 262.933 370.713C255.128 371.338 240.344 376.117 231.799 369.915C231.799 369.915 227.108 365.004 226.542 359.674Z" fill="#C3DAF9"/>
<path d="M262.933 370.713C261.327 370.842 259.423 371.147 257.341 371.495C256.875 374.96 256.677 380.749 259.618 384.506C264.099 384.279 267.718 383.581 269.107 382.338C272.878 378.963 270.738 370.088 262.933 370.713Z" fill="#7CAAF2"/>
<path d="M252.253 369.838C252.253 369.838 246.253 378.963 250.628 386.088" stroke="#7CAAF2" stroke-width="3" stroke-miterlimit="10" stroke-linecap="round" stroke-linejoin="round"/>
<path d="M244.815 370.588C244.815 370.588 236.628 377.338 239.878 385.463" stroke="#7CAAF2" stroke-width="3" stroke-miterlimit="10" stroke-linecap="round" stroke-linejoin="round"/>
<path d="M236.628 370.588C236.628 370.588 228.592 372.338 229.048 380.838" stroke="#7CAAF2" stroke-width="3" stroke-miterlimit="10" stroke-linecap="round" stroke-linejoin="round"/>
<path d="M230.459 365.463C230.459 365.463 224.339 363.588 221.734 371.588" stroke="#7CAAF2" stroke-width="3" stroke-miterlimit="10" stroke-linecap="round" stroke-linejoin="round"/>
</svg>
